<?xml version="1.0" encoding="utf-8"?>
<!-- Generator: Adobe Illustrator 26.0.2, SVG Export Plug-In . SVG Version: 6.00 Build 0)  -->
<svg version="1.1" id="Layer_1" xmlns="http://www.w3.org/2000/svg" xmlns:xlink="http://www.w3.org/1999/xlink" x="0px" y="0px"
	 viewBox="0 0 500 500" style="enable-background:new 0 0 500 500;" xml:space="preserve">
<style type="text/css">
	.st0{fill:url(#SVGID_1_);}
	.st1{fill:url(#SVGID_00000051369389142784721450000013616254732959169154_);}
	.st2{fill:url(#SVGID_00000165947765123106663330000001109791571966184345_);}
	.st3{fill:url(#SVGID_00000052065013107620708590000009459469873526231443_);}
	.st4{fill:url(#SVGID_00000020384549880230817880000015263268677211598492_);}
</style>
<g>
	<linearGradient id="SVGID_1_" gradientUnits="userSpaceOnUse" x1="157.1112" y1="306.2556" x2="157.1112" y2="72.9485">
		<stop  offset="0" style="stop-color:#00E35B"/>
		<stop  offset="0.6426" style="stop-color:#A7DA1F"/>
		<stop  offset="1" style="stop-color:#FFD500"/>
	</linearGradient>
	<path class="st0" d="M103.54,309.69V133.17c0-55.92,45.5-101.42,101.42-101.42l5.71,17.95l-5.71,13.48c-38.6,0-70,31.4-70,70
		v176.52H103.54z"/>
	
		<linearGradient id="SVGID_00000172419872113994771830000014800172821585934487_" gradientUnits="userSpaceOnUse" x1="284.2458" y1="372.537" x2="284.2458" y2="68.3825">
		<stop  offset="0" style="stop-color:#EB38C4"/>
		<stop  offset="0.503" style="stop-color:#FF8E4D"/>
		<stop  offset="1" style="stop-color:#FFD500"/>
	</linearGradient>
	<path style="fill:url(#SVGID_00000172419872113994771830000014800172821585934487_);" d="M331.75,231.97
		c-13.24-13.49-29.37-23.17-47-28.49c13.96-20.57,21.64-45.05,21.64-70.3c0-55.92-45.5-101.42-101.42-101.42v31.43
		c38.6,0,70,31.4,70,70c0,26.5-11.3,51.89-31.01,69.64l-0.26,0.23c-10.49,9.45-3.99,26.87,10.13,27.15l0.35,0.01
		c42.97,0.83,77.94,36.49,77.94,79.49c0,38.6-31.4,70-70,70v31.43c55.92,0,101.42-45.5,101.42-101.42
		C363.53,280.44,352.24,252.83,331.75,231.97z"/>
	
		<linearGradient id="SVGID_00000058551072223454943900000002596045658824312712_" gradientUnits="userSpaceOnUse" x1="385.5544" y1="386.1117" x2="137.4414" y2="386.1117">
		<stop  offset="0" style="stop-color:#1F93FF"/>
		<stop  offset="0.0665" style="stop-color:#19A0F2"/>
		<stop  offset="0.2434" style="stop-color:#0BBED6"/>
		<stop  offset="0.3952" style="stop-color:#03D0C4"/>
		<stop  offset="0.503" style="stop-color:#00D7BE"/>
		<stop  offset="1" style="stop-color:#00E35B"/>
	</linearGradient>
	<path style="fill:url(#SVGID_00000058551072223454943900000002596045658824312712_);" d="M420.67,309.69
		c0,42.35-16.49,82.17-46.44,112.12c-29.95,29.95-69.77,46.44-112.12,46.44c-42.35,0-82.17-16.49-112.12-46.44
		c-29.95-29.95-46.44-69.77-46.44-112.12l16.31-5.71l15.12,5.71c0,70.1,57.03,127.14,127.13,127.14s127.13-57.03,127.13-127.14
		l15.74-5.71L420.67,309.69z"/>
	
		<linearGradient id="SVGID_00000018232107131120892940000012076792977906217404_" gradientUnits="userSpaceOnUse" x1="214.2504" y1="375.9653" x2="214.2504" y2="90.2672">
		<stop  offset="0" style="stop-color:#EB38C4"/>
		<stop  offset="0.1757" style="stop-color:#DF39D5"/>
		<stop  offset="0.4749" style="stop-color:#CF3BEC"/>
		<stop  offset="0.7564" style="stop-color:#C53DFA"/>
		<stop  offset="1" style="stop-color:#C23DFF"/>
	</linearGradient>
	<path style="fill:url(#SVGID_00000018232107131120892940000012076792977906217404_);" d="M262.1,86.03c-38.6,0-70,31.4-70,70
		v153.66c0,38.6,31.4,70,70,70l5.71,15.71l-5.71,15.72c-55.92,0-101.42-45.5-101.42-101.42V156.03
		c0-55.92,45.5-101.42,101.42-101.42l5.71,15.66L262.1,86.03z"/>
	
		<linearGradient id="SVGID_00000164488444183001319350000014717073911515825574_" gradientUnits="userSpaceOnUse" x1="299.4599" y1="81.706" x2="400.0247" y2="290.8352">
		<stop  offset="0" style="stop-color:#C23DFF"/>
		<stop  offset="0.2218" style="stop-color:#9157FF"/>
		<stop  offset="0.4763" style="stop-color:#6070FF"/>
		<stop  offset="0.7002" style="stop-color:#3D83FF"/>
		<stop  offset="0.8824" style="stop-color:#278FFF"/>
		<stop  offset="1" style="stop-color:#1F93FF"/>
	</linearGradient>
	<path style="fill:url(#SVGID_00000164488444183001319350000014717073911515825574_);" d="M262.1,54.61
		c55.92,0,101.42,45.5,101.42,101.42c0,9.75-1.36,19.3-4.06,28.5c38.53,29.97,61.19,75.89,61.19,125.16h-31.43
		c0-42.87-21.39-82.57-57.23-106.21l-11.05-7.29l5.31-12.13c3.87-8.85,5.83-18.28,5.83-28.03c0-38.6-31.4-70-70-70V54.61z"/>
</g>
</svg>
